<svg xmlns="http://www.w3.org/2000/svg" viewBox="0 0 1024 1024" xml:space="preserve"><path d="M837.495 329.53c13.554 22.006 22.467 45.579 30.008 69.798 3.807 12.227 7.03 24.587 9.515 37.102 3.917 19.722 6.136 39.634 6.719 59.812.404 14.016.028 27.98-.552 41.931-.732 17.601-3.914 34.912-7.447 52.19-3.711 18.147-9.098 35.724-15.392 53.078-9.37 25.83-22.884 49.477-37.656 72.53-23.883 37.273-55.08 67.522-90.175 93.887-27.494 20.655-58.41 35.217-90.333 47.6-24.932 9.67-50.769 16.232-77.322 19.221-24.31 2.737-48.703 3.75-73.25 1.93-17.968-1.333-35.853-2.988-53.482-6.51-54.985-10.981-104.621-33.754-149.09-67.994-43.174-33.243-77.183-74.031-103.372-121.75-15.274-27.833-25.316-57.315-32.374-88.095-7.82-34.108-10.984-68.626-9.287-103.475.822-16.88 3.294-33.679 6.25-50.414 5.22-29.56 14.799-57.588 27.166-84.788 13.465-29.615 30.964-56.67 51.96-81.47 33.183-39.198 73.192-69.755 118.966-92.728 24.736-12.414 50.523-22.368 77.666-28.205 26.354-5.666 53.112-8.247 80.026-9.62 21.056-1.073 41.953.75 62.67 3.664 49.637 6.98 96.221 23.23 139.063 49.376 51.502 31.434 93.408 72.662 124.61 124.507 1.63 2.71 3.283 5.405 5.113 8.423M161.382 532.12c.3 2.305.797 4.605.864 6.917.343 11.839 2.646 23.47 4.594 35.049 3.028 18.003 8.239 35.532 14.069 52.909 8.154 24.305 19.198 47.082 32.809 68.722 24.321 38.666 55.158 71.219 91.856 98.316 37.282 27.528 78.12 47.23 123.524 57.455 22.444 5.054 45.125 8.493 67.963 9.87 28.266 1.702 56.559.292 84.427-5.569 19.994-4.205 39.977-8.51 58.88-16.585 20.52-8.766 40.918-17.891 59.878-29.69 23.976-14.92 45.168-33.345 65.903-52.535 23.75-21.98 41.332-48.28 57.071-75.938 11.196-19.676 19.045-40.968 26.59-62.376 10.515-29.83 14.341-60.688 16.1-91.92.888-15.76.393-31.551-.9-47.356-1.318-16.096-3.216-31.975-7.08-47.699-4.892-19.899-10.32-39.663-18.63-58.35-14.198-31.922-32.012-61.715-54.99-88.287-25.819-29.858-55.042-55.661-89.514-75.044-36.858-20.724-76.15-34.898-117.897-42.24-19.885-3.498-39.915-5.285-60.016-6.524-24.843-1.531-49.15 3.116-73.315 7.656-36.898 6.934-71.965 19.518-104.62 38.215-38.455 22.018-73.171 48.637-100.839 83.714-15.727 19.94-29.508 41.136-41.127 63.704-14.349 27.868-23.855 57.315-29.047 88.263-2.118 12.628-3.719 25.323-5.368 37.988-2.172 16.682-1.542 33.574-1.185 51.334"/><path d="M579.915 846.123c-3.972.749-5.22-1.432-5.827-4.31-1.712-8.12-3.274-16.273-5.12-24.361-.963-4.217 1.983-4.79 4.686-5.532a210 210 0 0 1 12.599-3.028c2.276-.476 3.769-1.342 3.36-3.947-.436-2.778-2.32-2.828-4.505-2.394a3234 3234 0 0 1-21.053 4.123c-2.785.535-3.989 2.015-3.52 4.926 1.078 6.704 2.072 13.422 3.051 20.141.599 4.107 1.1 8.228 1.658 12.341.42 3.088-.886 4.595-4.014 4.997-18.203 2.34-36.474 3.28-54.821 3.03-3.524-.048-5.367-1.533-5.413-5.005-.112-8.498-.103-16.998-.212-25.496-.042-3.296 1.89-4.42 4.73-4.494 5.33-.14 10.664-.13 15.994-.267 1.752-.045 3.971.312 4.09-2.435.12-2.758-1.786-3.166-3.994-3.259-7.32-.307-14.64-.62-21.953-1.046-2.823-.165-4.276.708-4.597 3.758-1.13 10.737-2.717 21.433-3.59 32.188-.357 4.399-1.908 5.13-5.946 4.75-17.082-1.6-34.018-4.042-50.826-7.493-6.882-1.413-6.863-1.578-5.511-8.347 1.334-6.683 2.953-13.285 4.462-19.92 1.428-6.279 1.803-6.616 7.851-5.328 5.017 1.069 9.996 2.525 15.195 2.23 2.046-5.722 1.553-6.709-4.01-7.925-5.52-1.207-11.188-1.6-16.598-3.476-3.812-1.32-5.729.784-6.813 4.444-2.832 9.56-5.862 19.063-8.93 28.55-1.924 5.947-2.454 6.18-8.1 4.18-16.643-5.896-33.125-12.197-49.121-19.705-5.81-2.727-5.917-3.18-2.724-8.798 3.703-6.516 7.515-12.973 11.025-19.59 1.758-3.315 3.547-4.336 7.071-2.282 3.289 1.917 7.005 3.083 10.426 4.795 4.326 2.164 6.523.883 7.057-4.453-7.204-3.728-14.556-7.548-21.924-11.337-2.953-1.519-4.255.59-5.48 2.65-5.274 8.876-10.697 17.672-15.694 26.703-2.136 3.862-3.948 4.319-7.752 2.012-15.249-9.248-30.429-18.559-44.68-29.336-3.57-2.7-4.344-4.73-1.17-8.354 5.263-6.008 10.184-12.327 15.045-18.67 2.224-2.903 4.097-3.131 6.992-.856 3.525 2.77 7.428 5.06 11.177 7.544 1.817 1.204 3.48 1.85 5.104-.489 1.534-2.208.246-3.375-1.279-4.536-5.7-4.34-11.497-8.556-17.106-13.01-2.737-2.174-4.215-.45-5.818 1.32-7.046 7.775-14.225 15.437-21.031 23.418-2.99 3.506-4.701 2.978-7.825.008-12.333-11.726-23.903-24.153-35.23-36.826-4.513-5.047-4.403-5.836.915-10.245 5.513-4.57 11.005-9.172 16.353-13.93 2.595-2.31 4.637-2.578 7.205.073 3.24 3.346 6.808 6.374 10.235 9.538 1.474 1.361 2.814 3.075 4.971.815 1.85-1.937 1.984-3.553-.05-5.511-4.915-4.733-10.152-9.154-14.422-14.529-1.695-2.133-3.372-1.36-5.177-.065-8.657 6.214-17.452 12.24-25.968 18.64-2.814 2.114-4.378 2.077-6.474-.755-11.327-15.303-20.997-31.63-30.3-48.202-1.825-3.25-1.27-5.076 2.065-6.642a765 765 0 0 0 22.418-10.986c2.35-1.2 3.698-.596 4.91 1.475 2.774 4.742 5.635 9.434 8.407 14.177 1.485 2.54 3.175 3.633 6.068 1.819 2.998-1.881 1.624-3.842.5-5.93-3.232-6.012-6.769-11.887-9.56-18.097-1.644-3.66-3.753-3.081-6.364-2.033-9.275 3.723-18.528 7.503-27.794 11.25-5.694 2.303-6.211 2.077-8.465-3.553-6.618-16.536-12.642-33.268-17.491-50.429-.945-3.341-.622-5.025 2.724-5.92 8.667-2.316 17.325-4.665 25.987-6.998 2.097-.565 2.928.456 3.523 2.39 1.658 5.391 3.623 10.689 5.276 16.082.869 2.834 2.451 3.065 4.93 2.222 2.687-.914 2.97-2.42 2.246-4.983-1.848-6.551-4.41-12.892-5.65-19.628-.66-3.59-3.141-4.131-6.426-3.486-9.476 1.86-18.983 3.556-28.484 5.28-5.88 1.066-6.451.185-7.87-5.678-3.608-14.913-4.422-30.194-6.548-45.3q-.068-.495-.116-.992c-.93-9.406-.47-10.083 9.025-9.92 6.358.11 12.615-.905 18.93-1.08 6.037-.168 6.474.223 6.448 6.53-.016 4.227 1.035 8.242 1.688 12.345.41 2.568 1.67 3.44 4.146 2.762 1.992-.545 3.818-.95 3.508-3.832-.71-6.61-1.35-13.24-1.662-19.877-.164-3.464-1.573-4.56-4.897-4.626-10.49-.213-20.974-.907-31.462-.932-4.71-.011-5.98-1.745-5.938-6.208.106-11.527 2.327-22.807 3.514-34.203.739-7.098 1.524-14.187 3.271-21.166.708-2.827 1.625-4.253 4.527-3.8 8.855 1.386 17.734 2.66 26.536 4.332 3.312.63 2.793 3.825 2.49 6.23-.622 4.946-1.559 9.851-2.331 14.778-.397 2.53-.967 5.122 2.879 5.57 3.753.437 5.133-1.3 5.128-4.851-.008-6.666.744-13.23 2.45-19.715 1.088-4.137-.881-6.553-5.107-7.495a1213 1213 0 0 1-28.692-6.756c-5.593-1.39-5.827-2.423-4.389-8.182 4.038-16.167 9.446-31.867 15.691-47.29 3.124-7.714 3.162-7.535 10.544-4.262 6.084 2.697 12.304 5.102 18.528 7.466 3.722 1.413 4.802 3.538 3.224 7.335-1.53 3.678-2.433 7.614-3.902 11.322-1.636 4.129-.458 6.32 4.21 7.022 3.403-5.273 4.77-11.347 7.072-16.987 4.018-9.848 3.875-9.934-5.799-14.536-7.22-3.434-14.43-6.896-21.73-10.154-3.865-1.724-4.867-4.011-2.844-7.849 8.714-16.525 18.319-32.488 29.342-47.592 1.898-2.6 3.39-2.97 5.99-.78 6.494 5.473 13.16 10.75 19.884 15.94 2.474 1.91 2.255 3.669.742 5.954-2.572 3.886-5.023 7.854-7.496 11.805-1.282 2.047-1.807 3.956.91 5.421 2.343 1.264 3.606.262 4.857-1.717a636 636 0 0 1 11.205-17.157c1.652-2.436 1.282-4.11-.965-5.92-8.042-6.475-15.852-13.243-24.024-19.546-3.893-3.002-3.88-5.262-.723-8.817 12.289-13.838 25.228-27.04 38.276-40.15 2.11-2.119 3.585-2.376 5.682.023 5.481 6.27 11.012 12.51 16.81 18.48 2.9 2.986 2.702 5.162-.088 7.961-3.522 3.534-6.68 7.428-10.119 11.05-1.789 1.884-2.266 3.451-.215 5.51 2.156 2.163 3.534.7 5.013-.715 5.533-5.297 10.955-10.715 16.62-15.867 2.533-2.304 2.013-3.99.09-6.27-6.228-7.383-12.327-14.874-18.447-22.347-4.628-5.651-4.515-5.947 1.223-10.387 14.508-11.226 29.76-21.347 45.295-31.079 3.157-1.977 4.773-1.706 6.636 1.606 4.241 7.541 8.758 14.935 13.371 22.257 2.058 3.266 1.098 5.085-1.963 6.76-4.526 2.479-8.89 5.254-13.408 7.748-3.897 2.15-3.84 4.517-.496 7.726 7.726-4.448 15.492-8.878 23.21-13.387 2.347-1.37.938-3.247.278-4.83-4.036-9.678-8.029-19.377-12.28-28.961-1.98-4.46-1.119-6.733 3.657-8.584 16.125-6.253 32.068-12.968 48.653-17.982 5.682-1.718 6.484-1.252 7.938 4.427 1.813 7.079 3.646 14.171 5.96 21.094 1.287 3.847.674 6.024-3.242 7.26-4.602 1.453-9.194 2.955-13.706 4.66-1.857.7-4.523 1.2-3.314 4.42 1.04 2.77 2.773 3.216 5.524 2.288 8.01-2.703 16.097-5.173 24.498-7.844-2.372-10.943-4.72-21.603-6.986-32.28-1.809-8.522-.779-9.345 8.014-10.356 10.037-1.155 20.006-2.974 29.964-4.733a174 174 0 0 1 19.302-2.297c2.893-.183 3.74.972 3.952 3.677a790 790 0 0 0 2.427 25.815c.383 3.446-.83 4.95-4.255 5.154-3.818.228-7.611.832-11.427 1.106-4.268.306-5.83 2.045-3.553 6.237 8.126 1.484 15.986-1.65 24.062-1.88 2.755-.078 2.354-2.797 2.348-4.738-.037-10.5.005-21.001-.262-31.495-.112-4.39 1.493-5.948 5.868-5.63 16.752 1.222 33.58 1.3 50.29 3.172 2.285.256 4.483 1.22 6.758 1.661 2.613.507 3.135 2.15 2.734 4.414-1.275 7.216-1.8 14.502-2.186 21.81-.4 7.581-2.235 9.023-9.636 7.99-3.958-.552-7.913-1.141-11.882-1.606-2.374-.278-4.338.103-4.4 3.235-.059 2.893 1.764 3.04 3.928 3.24 7.772.722 15.541 1.496 23.292 2.412 2.967.351 3.91-.649 4.463-3.63 1.817-9.793 3.787-19.552 5.017-29.446.873-7.02 2.418-7.992 9.13-6.098 16.296 4.599 32.663 8.94 48.668 14.546 3.825 1.34 4.583 2.73 3.05 6.472-3.151 7.691-5.923 15.544-8.65 23.4-1.207 3.474-3.15 4.253-6.494 3.057-3.601-1.288-7.349-2.159-10.975-3.383-3.507-1.184-5.478-.25-5.748 4.14 7.787 2.714 15.702 5.54 23.668 8.214 2.797.94 3.818-1.192 4.702-3.277 3.961-9.344 8.12-18.61 11.796-28.065 1.57-4.035 3.43-5.08 7.427-3.302 16.594 7.378 32.907 15.305 48.726 24.232 2.424 1.367 3.095 3.004 1.518 5.719-4.683 8.061-9.141 16.254-13.634 24.424-1.51 2.747-3.241 3.312-6.052 1.565-4.237-2.633-8.663-4.969-13.06-7.336-1.986-1.069-3.73-1.091-4.88 1.436-1.102 2.421.267 3.199 2.056 4.153 6.168 3.291 12.33 6.604 18.374 10.112 2.351 1.365 3.712 1.178 5.33-1.122 5.94-8.45 12.199-16.677 18.088-25.16 2.83-4.077 5.205-4.272 9.303-1.334 14.805 10.613 28.097 22.939 41.411 35.275 2.333 2.16 2.674 3.815.355 6.185-6.29 6.432-12.52 12.928-18.609 19.55-2.363 2.57-4.141 2.634-6.523.059-3.049-3.298-6.402-6.315-9.623-9.453-2.79-2.717-5.378-3.167-7.762.976 4.474 4.655 8.96 9.477 13.617 14.127 6.095 6.085 6.206 6.089 12.577.69 6.984-5.918 14.088-11.728 20.692-18.051 3.657-3.5 5.935-2.842 8.926.527 8.871 9.993 16.405 20.982 24.167 31.807 2.62 3.655 5.14 7.408 8.047 10.825 2.502 2.942 1.947 5.011-.992 6.924-7.26 4.724-14.567 9.376-21.786 14.16-2.656 1.76-4.309.581-5.875-1.481-3.023-3.981-6.086-7.932-9.068-11.943-1.405-1.89-2.762-2.794-4.87-.844-1.7 1.571-3.05 2.741-1.16 5.335 3.822 5.245 7.368 10.7 10.82 16.2 1.764 2.81 3.487 3.396 6.495 1.687 9.119-5.18 18.392-10.087 27.573-15.157 6.148-3.395 6.245-3.502 9.398 2.413 8.302 15.58 15.654 31.603 22.215 47.995 1.378 3.444.33 5.244-2.973 6.518-8.389 3.234-16.751 6.545-25.038 10.03-3.281 1.38-4.922.436-5.998-2.749-1.908-5.654-3.988-11.251-5.961-16.774-6.611.157-7.111 1.096-4.843 6.736 2.292 5.7 4.223 11.547 6.258 17.349 1.16 3.305 2.474 4.574 6.565 3.118 10.482-3.728 21.286-6.54 31.896-9.925 4.002-1.277 5.33.366 6.148 3.977 3.373 14.877 7.507 29.581 9.262 44.81.373 3.235 1.571 6.402 1.815 9.75.185 2.533-.752 3.729-3.145 4.137-9.182 1.565-18.356 3.17-27.534 4.757-2.226.385-2.748-.956-3.231-2.8-1.31-4.998-2.522-10.032-2.742-15.18-.153-3.568-1.864-4.16-4.833-3.78-3.327.426-3.427 2.201-2.668 4.965 1.72 6.259 2.662 12.703 2.945 19.165.16 3.632 1.62 4.591 4.892 4.444 10.64-.48 21.26-1.292 31.934-1.314 4.968-.01 6.81 1.44 6.899 6.401.303 16.836-.03 33.653-.698 50.473-.152 3.838-1.614 5.186-5.543 5.013-8.495-.375-16.931-1.31-25.395-1.974-3.848-.301-5.095-2.076-4.415-5.473.791-3.96.7-7.945.875-11.935.146-3.324-1.58-4.38-4.52-4.567-3.237-.207-4.02 1.585-3.914 4.341.23 6.01-.41 11.975-1.053 17.935-.41 3.797.822 5.66 5.042 6.184 10.373 1.29 20.675 3.147 31.004 4.788 5.712.908 6.615 2.108 5.475 7.91-1.92 9.772-3.86 19.544-6.008 29.268-1.396 6.322-3.21 12.552-4.775 18.838-1.103 4.432-3.44 6.487-8.242 5.068a715 715 0 0 0-23.1-6.41c-3.276-.85-3.754-2.652-2.926-5.58 1.532-5.41 2.88-10.874 4.322-16.386-2.265-1.525-4.582-1.43-6.904-2.125-2.502 8.359-4.89 16.274-7.233 24.203-.675 2.286 1.054 2.818 2.659 3.426 9.49 3.597 18.957 7.259 28.47 10.795 5.847 2.173 6.495 3.308 4.483 9.203-5.663 16.592-13.199 32.353-21.195 47.918-1.531 2.982-3.137 3.912-6.25 2.1-7.054-4.105-14.171-8.109-21.37-11.952-4.07-2.172-5.084-4.619-2.474-8.768 2.453-3.898 4.279-8.19 6.33-12.21-5.252-4.3-6.053-4.103-8.708 1.08-2.58 5.037-5.214 10.062-8.13 14.908-1.786 2.968-1.17 4.74 1.544 6.593 8.94 6.103 17.706 12.463 26.692 18.496 3.223 2.163 4.255 3.902 1.792 7.566-9.868 14.684-20.61 28.65-32.406 41.84-2.727 3.048-4.747 3.184-7.86.675-6.48-5.224-13.195-10.149-19.376-15.752-2.549-2.31-2.608-4.248-.27-6.716 3.204-3.384 6.233-6.937 9.27-10.474 1.652-1.922 1.805-3.627-.48-5.484-2.546-2.07-3.777-.552-5.302 1.194-4.273 4.893-8.506 9.83-12.982 14.534-2.427 2.55-2.107 4.392.248 6.714 7.826 7.716 15.462 15.626 23.313 23.317 2.174 2.13 3.1 3.754.356 6.073-14.235 12.037-27.644 25.032-42.455 36.412-2.837 2.18-4.474 1.955-6.454-.853-5.279-7.486-10.69-14.88-16.1-22.273-1.63-2.228-1.386-3.766 1.028-5.303 3.932-2.504 7.697-5.27 11.526-7.934 2.184-1.52 3.241-3.093 1.212-5.721-2.02-2.615-3.914-2.642-6.3-.725-4.93 3.964-9.86 7.93-14.864 11.8-2.381 1.842-2.905 3.704-1.203 6.377 5.096 8.003 10.033 16.109 15.058 24.158 4.476 7.17 4.383 7.538-2.714 11.912-14.337 8.837-29.144 16.777-44.369 23.991-4.055 1.922-5.88 1.06-7.649-2.773-3.416-7.407-7.115-14.69-10.891-21.922-2.05-3.926-1.796-6.35 2.957-7.811 4.606-1.416 8.853-3.813 13.011-6.295 1.698-1.013 2.4-2.193 1.493-4.092-.927-1.941-2.478-2.981-4.443-2.025-7.032 3.425-14 6.99-20.934 10.61-2.458 1.282-.882 3.167-.333 4.786 3.363 9.91 6.56 19.884 10.229 29.68 1.766 4.717.124 6.454-4.192 7.926-16.567 5.65-33.42 10.17-51.001 13.66M761.35 721.07c2.325 2.308 4.145 1.085 5.895-.82 5.53-6.023 10.173-12.762 15.387-19.025 3.267-3.925 2.457-6.033-1.395-8.57-8.899-5.864-17.6-12.026-26.442-17.977-2.178-1.467-3.764-2.852-1.895-5.592 8.842-12.957 16.415-26.648 23.464-40.642 1.205-2.392 2.894-2.822 5.33-1.564a1105 1105 0 0 0 22.754 11.433c3.285 1.6 3.755 3.324 1.898 6.648-2.732 4.892-6.057 9.542-7.702 14.944 5.954 4.824 6.426 4.8 9.452-1.35a611 611 0 0 0 8.956-18.967c2.71-6.021 2.315-6.753-3.787-9.172-9.134-3.621-18.213-7.387-27.407-10.848-3.864-1.454-5.184-3.06-3.35-7.362 5.673-13.32 10.13-27.056 12.504-41.406.414-2.504 1.532-4.153 4.82-3.353 8.55 2.08 17.186 3.809 25.783 5.696 2.783.611 3.284 2.616 2.714 4.981-1.09 4.516-2.191 9.038-3.548 13.478-.95 3.114.142 4.746 3.037 5.658 3.096.976 3.937-1.349 4.493-3.356 2.216-7.999 4.51-15.981 5.415-24.292.407-3.738-.86-5.5-4.646-6.006-9.894-1.323-19.723-3.23-29.647-4.198-4.97-.485-6.252-2.419-5.663-6.96 1.859-14.337 3.866-28.67 3.863-43.17 0-3.028 1.039-3.958 4.163-3.848 8.155.288 16.335.404 24.484.069 4.183-.172 5.197 1.367 5.055 5.159-.223 5.928-.06 11.87-.06 17.78 7.38 1.523 7.7 1.291 7.724-5.685.025-7.166.053-14.332.027-21.499-.022-6.036-.574-6.457-6.69-6.022-9.3.663-18.62 1.08-27.9 1.946-4.91.458-7.474-.983-7.745-6.196-.25-4.803-1.07-9.573-1.471-14.373-.763-9.12-2.672-18.046-4.37-27.012-.652-3.441.355-5.433 4.335-6.244 6.991-1.425 13.86-3.494 20.727-5.476 5.654-1.633 6.937-.979 8.24 4.92 1.039 4.704 2.192 9.39 3.013 14.131.621 3.585 3.18 2.882 5.367 2.683 2.817-.255 2.125-2.311 1.806-4.164-.618-3.6-.963-7.254-1.723-10.822-1.363-6.401-2.95-12.755-4.503-19.386-2.25.502-3.872.788-5.45 1.228-10.42 2.909-20.849 5.785-31.23 8.823-2.9.849-4.752.566-5.719-2.663-4.388-14.66-9.364-29.115-15.624-43.095-1.01-2.254-.773-3.717 1.6-4.825 7.837-3.66 15.681-7.313 23.417-11.182 3.405-1.703 5.095-.717 6.536 2.562 2.585 5.877 5.493 11.613 8.169 17.205 5.214-.397 6.528-2.2 4.577-6.87-3.148-7.535-6.732-14.835-10.306-22.162-1.855-3.803-3.959-4.183-7.44-2.288-9.07 4.94-18.296 9.591-27.35 14.555-3.288 1.802-5.41 1.723-7.12-1.994-1.384-3.012-3.176-5.866-5.034-8.624a1921 1921 0 0 0-18.632-27.2c-1.697-2.43-2.184-4.301.546-6.325a899 899 0 0 0 19.48-14.825c3.069-2.406 5.282-1.909 7.488 1.159 2.913 4.051 6.039 7.95 9.109 11.887 1.423 1.825 2.958 2.485 5.04.688 1.83-1.578 2.333-2.896.681-5.013-5.12-6.564-10.09-13.246-15.096-19.897-2.246-2.984-4.296-3.265-7.312-.567-7.692 6.88-15.701 13.406-23.556 20.106-1.909 1.629-3.649 3.014-5.856.345-10.247-12.388-22.28-22.918-34.753-32.951-3.257-2.62-2.089-4.596.052-6.98 5.117-5.697 10.348-11.31 15.139-17.274 2.547-3.172 4.578-3.649 7.767-1.077 5.288 4.265 10.79 8.263 16.119 12.311 5.517-4.06 5.614-5.147.742-8.97-6.42-5.039-13.034-9.841-19.325-15.035-3.232-2.667-5.08-1.73-7.27 1.202-5.78 7.74-11.968 15.186-17.558 23.057-2.897 4.079-5.198 4.506-9.213 1.46-10.378-7.876-21.808-14.106-33.33-20.136-1.565-.82-3.3-2.247-5.106-.994-3.874 2.686-6.016-.205-8.62-2.062 1.298-4.243 4.104-2.545 6.64-1.974.672-1.02 1.395-1.939 1.929-2.957 3.323-6.339 6.664-12.67 9.882-19.062 2.956-5.873 3.653-6.194 9.485-3.483 3.926 1.825 7.86 3.633 11.75 5.53 2.488 1.213 4.325 1.2 5.63-1.744 1.266-2.86.257-4.2-2.346-5.399-6.653-3.066-13.189-6.386-19.803-9.54-6.547-3.123-7.392-2.67-10.356 4.112-3.866 8.845-8.006 17.572-11.84 26.431-1.19 2.751-2.816 3.818-5.348 2.223-5.33-3.356-13.88.638-17.08-7.514-.083-.212-.586-.269-.9-.379-8.324-2.908-16.487-6.366-25.223-7.905-3.656-.644-4.74-2.103-3.588-5.82 2.36-7.61 4.402-15.321 6.414-23.032.99-3.793 2.833-5.164 6.87-4.08 5.276 1.417 10.45 3.279 15.932 3.969 1.83.23 2.919-.195 3.576-1.79.697-1.69.118-2.992-1.545-3.639-8.697-3.383-17.539-6.26-26.786-7.786-2.662-.44-3.417.71-3.905 3.108-2.125 10.418-4.787 20.738-6.536 31.214-.747 4.48-2.289 5.029-6.229 4.175-15.291-3.311-30.66-6.224-46.4-6.235-2.641-.002-4.142-1.025-4.123-3.78.056-8.33.056-16.663.24-24.992.068-3.146 1.692-4.84 5.157-4.54 5.64.488 11.306.69 16.948 1.166 2.263.19 4.387.8 4.66-2.604.238-2.957-.93-4.308-3.87-4.493-8.636-.541-17.26-1.3-25.902-1.732-6.422-.32-7.293.702-6.424 7.16 1.296 9.628.41 19.311.949 28.954.137 2.459-1.025 3.803-3.535 3.742-15.224-.367-30.202 2.08-45.226 3.973-3.824.481-5.494-1.203-6.039-4.813-1.087-7.21-2.158-14.433-3.609-21.574-.688-3.39.386-4.86 3.5-5.841 5.269-1.66 10.752-2.09 16.117-3.172 2.347-.474 3.054-1.645 2.664-3.855-.386-2.19-1.077-3.858-3.849-3.36-8.839 1.59-17.691 3.108-26.53 4.693-3.141.564-3.913 2.32-3.142 5.45 2.5 10.144 4.712 20.358 7.123 30.525.697 2.939-.457 4.37-3.225 5.04-15.54 3.756-30.982 7.843-45.708 14.214-2.584 1.118-4.103.238-5.009-2.273-2.652-7.355-5.339-14.698-8.005-22.049-1.494-4.116-.242-6.608 4.128-7.824 4.472-1.243 8.796-3.011 13.228-4.41 2.207-.696 3.551-1.553 2.762-4.248-.814-2.781-2.333-3.996-5.146-3.01-8.168 2.866-16.308 5.81-24.473 8.683-3.357 1.182-4.16 2.966-2.62 6.441 4.174 9.421 7.915 19.033 11.977 28.505 1.49 3.476.673 5.457-2.757 7.132-13.476 6.583-26.688 13.674-39.246 21.898-2.656 1.739-4.148 1.064-5.701-1.27a1471 1471 0 0 0-12.876-19.04c-2.388-3.471-1.814-6.005 1.82-8.229 4.684-2.867 9.214-5.99 13.76-9.08 1.602-1.09 3.64-2.078 2.005-4.712-1.5-2.415-3.197-2.385-5.44-1.045-7.575 4.526-15.24 8.879-22.604 13.777-4.45 2.96-4.184 5.272-1.135 8.985 6.443 7.85 12.497 16.018 18.85 23.944 2.182 2.723 1.79 4.574-.865 6.64-12.497 9.73-24.594 19.93-35.494 31.456-2.418 2.557-4.3 2.357-6.665-.04-5.496-5.572-11.105-11.035-16.767-16.438-2.204-2.103-1.988-3.822-.03-5.934 3.847-4.152 7.52-8.465 11.306-12.675 1.532-1.704 2.94-3.174.506-5.392-2.157-1.964-3.807-2.097-5.916.055-6.066 6.188-12.187 12.31-17.898 18.845-2.991 3.422-2.734 5.713.83 8.58 7.784 6.262 15.295 12.868 22.86 19.4 1.822 1.575 4.49 3.242 1.772 6.072-10.695 11.138-18.804 24.169-27.16 37.01-1.89 2.906-3.824 2.447-6.316 1.14-6.637-3.485-13.283-6.961-20.023-10.24-3.396-1.651-4.481-3.555-2.308-7.019 3.008-4.793 5.663-9.808 8.67-14.602 1.565-2.493 1.376-4.096-1.203-5.716-2.684-1.685-4.216-.79-5.655 1.596-4.213 6.987-8.4 13.994-12.806 20.858-2.49 3.877-1.145 5.873 2.594 7.603 9.064 4.192 18.002 8.655 27.053 12.876 5.476 2.553 5.702 2.903 2.859 8.007-7.397 13.28-13.349 27.182-17.559 41.788-.868 3.014-2.348 3.738-5.086 2.917-8.295-2.487-16.586-4.988-24.894-7.432-2.865-.843-3.624-2.305-2.41-5.201 2.183-5.213 4.017-10.573 6.05-15.85.89-2.312.99-4.19-1.84-5.205-2.806-1.006-4.853-.583-5.968 2.478-2.84 7.798-5.875 15.513-8.205 23.508-1.312 4.502.356 6.012 4.27 6.95 9.857 2.362 19.657 4.967 29.518 7.313 4.081.971 5.896 2.594 4.59 7.252-4.18 14.906-6.633 30.16-8.143 45.56-.327 3.337-2.557 3.576-5.008 3.315-7.28-.775-14.56-1.582-21.816-2.555-7.11-.954-7.595-1.872-6.238-9.074.737-3.917 1.28-7.878 1.717-11.84.345-3.123-1.837-3.915-4.387-4.225-2.435-.297-2.995 1.022-3.414 3.163-1.667 8.506-2.587 17.065-2.86 25.73-.127 3.988 1.122 5.703 5.317 5.819 10.324.286 20.644 1.141 30.972.655 4.42-.208 5.91 1.373 5.756 5.73-.512 14.48-.628 28.97 1.314 43.375.34 2.517-.337 3.944-2.808 4.258-8.587 1.088-17.182 2.112-25.777 3.137-3.74.447-4.983-1.606-5.2-5.002-.274-4.307-.68-8.617-1.286-12.89-.342-2.408-.634-5.2-4.36-4.781-3.198.359-4.22 2.194-3.865 5.158.967 8.081 2.08 16.15 2.814 24.253.391 4.317 2.224 5.211 6.27 4.418 10.105-1.983 20.299-3.508 30.425-5.39 3.444-.64 5.7.335 6.266 3.799 2.447 14.98 6.661 29.46 12.144 43.583 1.316 3.389.39 5.23-3.133 6.275-7.341 2.18-14.734 4.284-21.864 7.042-4.725 1.828-6.626.386-7.928-4.04-1.452-4.938-3.408-9.73-5.157-14.58-.846-2.348-2.369-2.97-4.704-1.978-1.788.761-3.652 1.48-2.723 3.889 3.75 9.726 6.697 19.777 11.48 29.441 11.228-2.901 21.352-8.048 31.956-11.852 6.023-2.161 6.629-2.293 8.77 3.686 4.634 12.932 10.946 25.006 18.424 36.453 2.48 3.795 1.646 5.935-1.771 8.13a903 903 0 0 0-19.59 12.925c-2.668 1.814-4.257.76-5.738-1.504-2.737-4.183-5.483-8.36-8.297-12.49-2.965-4.353-3.812-4.384-8.306-.228 4.89 8.55 10.137 16.994 15.87 25.14 1.816 2.58 3.682 1.97 5.912.367 8.655-6.22 17.463-12.23 26.077-18.505 2.524-1.84 4.088-1.469 5.74.921 8.177 11.836 18.23 22.087 27.867 32.677 2.476 2.721 2.363 4.633-.072 7.18-5.525 5.778-10.966 11.645-16.23 17.662-2.674 3.057-4.852 2.83-7.373.006-3.636-4.072-7.363-8.064-10.856-11.876-6.053 4.071-6.17 4.446-2.236 8.485 4.766 4.892 9.795 9.533 14.472 14.507 3.037 3.23 5.363 2.98 8.233-.205 6.914-7.669 14.095-15.096 21.017-22.757 1.849-2.046 3.21-2.414 5.347-.493 11.774 10.588 23.738 20.946 37.467 29.01 1.763 1.037 2.396 2.303 1.213 4.083-5.346 8.048-10.736 16.065-16.082 24.113-1.422 2.14-2.918 2.242-4.982.753-3.917-2.825-7.945-5.499-11.982-8.152-2.153-1.414-4.425-3.725-6.728-.186-2.446 3.758 1.253 4.694 3.145 5.942 6.112 4.032 12.387 7.827 18.7 11.542 5.376 3.164 6.355 2.804 9.436-2.46 4.965-8.481 10.01-16.917 14.893-25.444 1.404-2.452 2.835-3.46 5.56-1.887 13.269 7.667 27.106 14.204 41.075 20.471 2.198.986 3.57 2.233 2.432 5.025-3.267 8.008-6.46 16.048-9.49 24.147-1.152 3.075-2.84 3.706-5.732 2.468-4.745-2.03-9.563-3.893-14.332-5.87-2.166-.899-3.681-.727-4.82 1.71-1.213 2.6.06 3.758 2.085 4.624 8.1 3.468 16.091 7.195 24.57 9.743 3.55 1.066 5.005.065 6.05-3.512 2.845-9.73 6.194-19.313 9.238-28.987 1.276-4.054 3.256-5.268 7.712-3.98 14.018 4.054 28.036 8.276 42.753 9.185 3.55.219 4.358 2.437 3.602 5.62-1.995 8.4-3.994 16.8-5.862 25.228-.561 2.53-1.99 3.261-4.317 2.906-4.601-.704-9.287-.747-13.82-2.047-2.319-.666-4.539-.818-5.291 2.608-.807 3.678 1.766 3.808 3.946 4.305 8.602 1.96 17.355 2.981 26.104 4.024 3.245.387 4.507-1.019 4.704-4.165.625-9.952 1.694-19.886 2-29.845.153-4.965 2.05-6.28 6.663-5.98 14.785.965 29.587 2.014 44.39.26 3.129-.372 4.481.942 4.93 4.046 1.1 7.586.59 15.285 2.024 22.863 1.273 6.732.143 7.889-6.782 8.19-5.16.223-10.33.191-15.495.262-2.024.028-3.078.938-3.035 3.056.037 1.837.336 3.445 2.652 3.366 9.648-.33 19.302-.57 28.937-1.134 3.48-.203 4.86-1.884 4.152-6.061-1.743-10.294-3.469-20.638-3.428-31.16.011-2.84.497-4.99 3.8-5.297 14.93-1.383 29.446-4.946 43.938-8.554 3.455-.86 4.27.415 4.936 3.465 1.73 7.93 3.528 15.875 5.927 23.618 1.227 3.96.143 5.626-3.432 6.583-4.984 1.335-9.952 2.73-14.934 4.07-2.887.778-2.939 2.924-2.343 5.15.636 2.375 2.323 2.22 4.372 1.667 4.649-1.255 9.397-2.14 14.05-3.377 5.374-1.427 10.69-3.072 16.109-4.645-.34-1.16-.509-1.795-.712-2.42-3.547-10.909-7.123-21.809-10.628-32.731-.715-2.226-1.56-4.708 1.616-5.865 14.424-5.257 28.085-12.163 41.65-19.27 2.335-1.224 3.726-.369 4.949 1.59a6186 6186 0 0 0 13.27 21.153c2.12 3.366 1.601 5.836-2.153 7.649-4.799 2.315-9.492 4.85-14.22 7.312-2.037 1.061-3.08 2.438-1.73 4.823 1.172 2.069 2.51 2.92 4.855 1.726 7.857-3.998 15.962-7.498 23.392-12.343 3.326-2.169 3.412-4.207 1.451-7.386-5.331-8.645-10.35-17.482-15.624-26.162-1.375-2.264-1.459-3.98.831-5.52 12.88-8.653 24.855-18.464 36.576-28.6 1.975-1.707 3.595-1.841 5.437.415a1104 1104 0 0 0 17.978 21.438c2.413 2.806 2.168 4.94-.86 6.975-3.87 2.6-7.62 5.382-11.54 7.9-2.503 1.608-3.66 3.207-1.618 6.013 2.202 3.025 4.1 1.066 5.866-.295 6.202-4.78 12.136-9.874 17.894-15.192 2.995-2.765 2.98-4.723.127-7.71-7.13-7.467-13.9-15.28-20.82-22.946-1.756-1.945-3.574-4.038-.897-6.4 11.573-10.207 20.71-22.544 30.349-34.443 1.496-1.847 3.065-2.545 5.103-.981a4990 4990 0 0 1 21.368 16.458c2.402 1.863 2.763 3.82.515 6.287-3.588 3.938-6.913 8.115-10.393 12.153-1.411 1.637-2.638 3.194.219 5.43"/><path d="M280.354 356.41c28.695-42.459 66.756-73.553 111.994-96.057 17.45-8.68 36.123-14.199 55.095-18.822 26.05-6.348 52.407-8.771 79.119-7.821 22.682.807 44.836 4.78 66.566 11.357 19.49 5.899 38.274 13.417 55.964 23.53 2.481 1.418 4.538.163 6.72-.147 2.724-.387 4.94.35 3.899 3.14-1.332 3.565 1.174 4.029 2.982 5.143 19.52 12.03 37.463 26.062 53.321 42.624 28.366 29.627 49.926 63.407 62.572 102.694 5.405 16.792 9.407 33.783 12.152 51.235 3.683 23.407 3.803 46.83 1.054 70.116-4.906 41.56-19.215 80.007-41.673 115.357-33.258 52.348-79.02 89.678-136.598 112.279-23.287 9.141-47.582 14.714-72.611 17.396-30.16 3.231-60.008 1.562-89.265-5.574-37.837-9.23-72.915-24.857-104.46-48.298-36.751-27.307-64.627-61.762-85.093-102.4-11.123-22.088-18.476-45.445-22.664-69.903-2.98-17.402-5.397-34.817-5.415-52.454-.018-17.305 2.312-34.392 5.276-51.47 4.832-27.85 14.646-53.841 27.477-78.802 4.027-7.833 8.898-15.23 13.588-23.124m-25.976 106.444c-1.018 9.076-2.72 18.035-3.49 27.183-1.45 17.193-1.327 34.398.802 51.344 3.384 26.934 10.648 52.99 21.886 77.878 16.614 36.795 40.517 68.004 71.627 93.566 28.244 23.206 59.956 39.956 95.3 49.874 17.344 4.867 34.995 8.306 52.783 9.69 24.911 1.937 49.812.073 74.358-5.396 23.652-5.27 46.25-13.23 67.913-24.155 36.9-18.61 66.79-45.123 91.367-78.176 31.814-42.786 47.12-91.163 49.83-143.884.983-19.134-.516-38.207-3.912-57.095-3.153-17.532-7.662-34.705-14.27-51.257-11.238-28.144-27.23-53.373-47.805-75.585-37.887-40.901-84.476-66.98-138.432-80.151-33.324-8.134-67.015-8.268-100.729-3.149-22.634 3.437-44.417 10.13-65.516 19.126-41.19 17.562-75.535 43.88-102.782 79.449-25.069 32.725-40.755 69.597-48.93 110.738"/><path d="M510 365.699c17.165 0 33.83.017 50.495-.02 2.703-.005 5.25.227 7.68 1.647 14.519 8.483 29.041 16.964 43.66 25.274 3.157 1.795 4.44 4.059 4.42 7.626-.09 16.498-.119 32.997.042 49.494.044 4.566-1.835 6.238-6.247 6.22-17.498-.073-34.997-.07-52.494.092-4.772.044-6.598-2.03-6.524-6.607.12-7.33-.056-14.665.063-21.996.06-3.75-1.284-5.32-5.264-5.296a5490 5490 0 0 1-68.992-.001c-4.448-.03-5.724 1.668-5.686 5.912.162 17.83.18 35.663-.029 53.492-.05 4.398 1.791 5.258 5.662 5.24 24.163-.113 48.342.436 72.485-.264 11.308-.328 21.023 2.098 30.465 8.203 10.608 6.86 21.796 12.831 32.812 19.047 2.674 1.509 3.755 3.531 3.752 6.464-.047 38.996-.08 77.99-.075 116.986 0 3.012-1.308 4.953-3.88 6.421a8890 8890 0 0 0-44.599 25.649c-2.414 1.397-4.97 1.762-7.677 1.761a63684 63684 0 0 0-101.988.043c-3.271.005-6.133-.81-8.981-2.475-14.234-8.321-28.512-16.57-42.884-24.65-3.218-1.81-4.373-4.156-4.354-7.667.086-16.33.133-32.662.012-48.992-.034-4.539 1.331-6.614 6.313-6.558 17.328.193 34.661-.01 51.992-.012 6.009 0 6.935.953 6.959 6.99.028 7.166.086 14.334-.097 21.496-.094 3.697 1.023 5.529 5.062 5.514 24.83-.086 49.662-.066 74.492.018 3.25.01 4.484-1.327 4.477-4.445-.044-19.33-.077-38.661.002-57.991.019-4.467-2.475-5.046-6.131-5.035-26.164.078-52.33-.14-78.49.166-6.63.078-12.296-1.46-17.888-4.832-11.55-6.964-23.138-13.903-35.052-20.206-5.658-2.994-7.722-6.68-7.554-12.981.524-19.65.01-39.312.492-58.977.404-16.478-.143-32.983-.418-49.474-.068-4.08 1.21-6.711 4.982-8.818 14.39-8.038 28.597-16.407 42.84-24.707 2.409-1.405 4.925-1.785 7.652-1.776 15.998.05 31.995.025 48.493.025m251.976 127.658c1.22 6.728 3.226 12.803 3.326 19.443.5 33.237-27.868 63.925-58.288 68.453-26.902 4.004-50.272-3.107-68.504-23.738-19.891-22.509-19.712-57.775-1.443-82.336 14.091-18.943 33.192-28.978 56.235-29.824 16.875-.62 32.911 4.547 46.305 15.646 10.334 8.565 17.976 19.125 22.37 32.356m-26.37 19.393c.485-4.086-1.403-7.817-1.743-11.807-.758-8.885-3.202-17.335-8.137-24.85-8.77-13.352-21.438-19.43-37.106-17.592-13.35 1.567-22.109 10.082-27.402 22.135-5.646 12.855-7.71 26.385-6.91 40.366.645 11.26 3.113 21.958 9.436 31.556 15.439 23.438 51.92 21.442 64.5-3.63 5.552-11.07 7.243-23.012 7.362-36.178M345.95 523c-.11 11.822-.22 23.143-.329 34.465-.066 6.895 3.608 11.507 10.476 13.2 1.112.273 2.375.417 3.255 1.053 1.819 1.315 3.11 3.167 2.583 5.55-.542 2.45-2.68 2.738-4.729 2.784-2.662.06-5.328-.051-7.993-.055-12.99-.016-25.982.026-38.973-.073-2.181-.017-5.343.618-5.756-2.48-.37-2.765 1.45-5.603 4.168-6.164 10.235-2.11 11.572-9.187 11.483-18.005-.27-26.48-.117-52.965-.155-79.447-.01-6.818-.104-6.865-7.07-6.872-3.33-.004-6.661-.02-9.992-.023-10.688-.012-17.487 4.814-21.124 14.932-.614 1.708-1.23 3.455-2.15 5.004-1.248 2.107-3.353 2.73-5.65 2.12-2.356-.627-3.09-2.85-2.869-4.743 1.056-9.065 1.288-18.217 3.124-27.21.797-3.902 2.934-5.44 6.538-5.283 6.64.29 13.27 1.057 19.906 1.098 22.318.138 44.637.055 66.956.031 4.82-.005 9.61.002 14.426-.835 6.317-1.097 9.58 1.707 9.738 8.108.2 8.156.111 16.32.102 24.481-.003 2.674-.513 5.038-3.915 5.282-3.354.24-4.015-1.876-4.633-4.588-2.838-12.464-8.844-17.465-21.515-18.116-3.492-.179-7.004-.01-10.487-.27-4.205-.314-5.493 1.573-5.46 5.59.134 16.654.05 33.31.044 50.466"/></svg>